<?xml version="1.0" standalone="no"?><!DOCTYPE svg PUBLIC "-//W3C//DTD SVG 1.1//EN" "http://www.w3.org/Graphics/SVG/1.1/DTD/svg11.dtd"><svg t="1485878636127" class="icon" style="" viewBox="0 0 1024 1024" version="1.1" xmlns="http://www.w3.org/2000/svg" p-id="1995" xmlns:xlink="http://www.w3.org/1999/xlink" width="64" height="64"><defs><style type="text/css"></style></defs><path d="M376.257903 858.634575h271.471384v42.20924H376.257903z" fill="#f71531" p-id="1996"></path><path d="M376.257903 858.634575h67.393873v42.20924h-67.393873z" fill="#f71531" p-id="1997"></path><path d="M376.257903 899.127263h271.471384v29.091709H376.257903z" fill="#f71531" p-id="1998"></path><path d="M376.257903 899.127263h67.393873v29.091709h-67.393873z" fill="#f71531" p-id="1999"></path><path d="M376.257903 928.218972h271.471384v95.781028H376.257903z" fill="#f71531" p-id="2000"></path><path d="M376.257903 928.218972h67.393873v95.781028h-67.393873z" fill="#f71531" p-id="2001"></path><path d="M648.805334 133.762938H382.803858V95.934749C382.803858 43.029085 419.658481 0 464.942142 0h101.737718c45.283661 0 82.125474 43.029085 82.125474 95.934749zM403.299999 113.241177h224.970764V95.934749c0-41.581545-27.63136-75.400178-61.590903-75.400178h-101.737718C430.969789 20.496141 403.299999 54.353203 403.299999 95.934749z" fill="#f71531" p-id="2002"></path><path d="M156.065301 568.486083h711.869398v75.284887H156.065301zM176.31805 777.226466H847.68195A162.752167 162.752167 0 0 0 867.755357 701.992819H156.244643a162.752167 162.752167 0 0 0 20.073407 75.233647zM156.065301 435.030587h711.869398v75.284886H156.065301zM156.065301 301.57509h711.869398v75.284887H156.065301zM195.289791 168.119594A163.815405 163.815405 0 0 0 159.075672 243.391671h705.835846a163.815405 163.815405 0 0 0-36.214119-75.284887zM320.316249 862.772233h383.367502a162.944319 162.944319 0 0 0 90.400791-27.375158H229.915458a162.944319 162.944319 0 0 0 90.400791 27.375158z" fill="#f71531" p-id="2003"></path><path d="M703.683751 109.948985H320.316249a163.969126 163.969126 0 0 0-125.026458 58.170609h633.420418a163.969126 163.969126 0 0 0-125.026458-58.170609zM156.065301 274.199932v27.375158h711.869398v-27.375158a163.16209 163.16209 0 0 0-3.010371-30.744211H159.075672a163.16209 163.16209 0 0 0-3.010371 30.744211zM156.065301 376.859977h711.869398v58.17061H156.065301zM156.065301 510.315473h711.869398v58.17061H156.065301zM156.065301 698.521286c0 1.152908 0.153721 2.267386 0.179342 3.420293h711.510714c0-1.152908 0.179341-2.267386 0.179342-3.420293v-54.750316H156.065301zM229.915458 835.397075h564.156273a166.0956 166.0956 0 0 0 53.597408-58.170609H176.31805a166.0956 166.0956 0 0 0 53.597408 58.170609z" fill="#f71531" p-id="2004"></path><path d="M267.513067 707.578018V265.16882c0-85.353616 69.840599-155.194215 155.194215-155.194215h-104.991481C232.349375 109.948985 156.065301 186.233059 156.065301 271.573864l0.179342 430.418955c0 85.353616 76.117543 160.830654 161.471158 160.830654h104.940241C337.289616 862.772233 267.513067 792.944444 267.513067 707.578018z" fill="#f71531" p-id="2005"></path></svg>