<?xml version="1.0" standalone="no"?><!DOCTYPE svg PUBLIC "-//W3C//DTD SVG 1.1//EN" "http://www.w3.org/Graphics/SVG/1.1/DTD/svg11.dtd"><svg t="1485624003773" class="icon" style="" viewBox="0 0 1060 1024" version="1.1" xmlns="http://www.w3.org/2000/svg" p-id="6714" xmlns:xlink="http://www.w3.org/1999/xlink" width="66.25" height="64"><defs><style type="text/css"></style></defs><path d="M992.700944 435.834997" p-id="6715" fill="#0fc966"></path><path d="M526.013613 0 116.402534 133.976171l2.066302 521.708607 0.466869 5.652759c0.746235 3.426639 16.506509 86.309018 95.322979 166.149831 60.601047 61.548626 209.206184 141.950688 272.621027 176.258605 9.960282 5.413662 17.387393 9.400291 21.667231 11.84034l15.040466 8.413701 18.493531-9.667073c37.0676-18.721303 225.594403-115.696568 295.647335-186.726024 78.894492-79.921351 94.656024-162.80373 95.322979-166.230369L935.624692 134.01644 526.013613 0zM870.56763 652.097063c-2.972354 12.159975-19.933147 72.214874-77.414606 130.496679C734.752929 841.901147 571.174021 928.051606 524.679703 951.944956c-2.452633-1.306225-5.119195-2.692988-7.93299-4.225727-55.747376-30.16147-203.764838-110.242638-257.793231-165.12423-57.641276-58.362343-74.482521-118.336704-77.454875-130.496679l-1.880058-471.853087L526.013613 66.88175l346.396323 113.362226L870.56763 652.097063zM339.661336 734.605695l56.268356 0 0-22.52043 286.155181 0 0 22.52043 55.748634 0L737.833506 578.0424 339.661336 578.0424 339.661336 734.605695zM395.929691 617.723709l286.155181 0 0 56.293524L395.929691 674.017233 395.929691 617.723709zM532.90716 263.833579l12.212828 24.66727L418.757172 288.500849l24.960479-49.868104-58.401354-6.426678c-22.999882 56.828346-57.520469 108.483386-103.522751 154.95002l10.07983 33.774353 6.373825 24.668528c8.146919-8.213614 15.920091-16.439813 23.361045-24.668528 7.425852-8.213614 14.159582-15.906249 20.173503-23.052735l0 160.856976 54.147942 0 0-16.613473 375.357274 0 0-39.681309L595.028361 502.439898l0-35.921193 153.41854 0 0-33.240788L595.028361 433.277916l0-35.400213 153.41854 0 0-35.921193L595.028361 361.956511l0-35.387629 167.751782 0 0-38.066775L607.228605 288.502107c-3.893507-9.293327-8.492981-19.040938-13.800936-29.21389-5.305439-10.199379-10.973298-19.934406-16.985961-29.227732l-56.282198 8.573519L532.90716 263.833579zM540.866576 502.439898 395.929691 502.439898l0-35.921193 144.938143 0L540.867835 502.439898zM540.866576 433.277916 395.929691 433.277916l0-35.400213 144.938143 0L540.867835 433.277916zM540.866576 361.956511 395.929691 361.956511l0-35.387629 144.938143 0L540.867835 361.956511z" p-id="6716" fill="#0fc966"></path></svg>