<?xml version="1.0" standalone="no"?><!DOCTYPE svg PUBLIC "-//W3C//DTD SVG 1.1//EN" "http://www.w3.org/Graphics/SVG/1.1/DTD/svg11.dtd"><svg t="1487676824615" class="icon" style="" viewBox="0 0 1024 1024" version="1.1" xmlns="http://www.w3.org/2000/svg" p-id="2032" xmlns:xlink="http://www.w3.org/1999/xlink" width="32" height="32"><defs><style type="text/css"></style></defs><path d="M512 0c-283.306667 0-512 228.693333-512 512s228.693333 512 512 512 512-228.693333 512-512-228.693333-512-512-512z m276.48 378.88l-331.093333 331.093333c-3.413333 3.413333-10.24 6.826667-13.653334 3.413334 0-3.413333-3.413333-3.413333-3.413333-3.413334l-204.8-204.8c-6.826667-3.413333-6.826667-10.24 0-17.066666l47.786667-47.786667c3.413333-3.413333 13.653333-3.413333 17.066666 0l146.773334 146.773333 276.48-276.48c3.413333-6.826667 10.24-6.826667 17.066666 0l47.786667 47.786667c3.413333 6.826667 6.826667 13.653333 0 20.48z" p-id="2033" fill="#0fc966"></path></svg>