<?xml version="1.0" standalone="no"?><!DOCTYPE svg PUBLIC "-//W3C//DTD SVG 1.1//EN" "http://www.w3.org/Graphics/SVG/1.1/DTD/svg11.dtd"><svg t="1487654136057" class="icon" style="" viewBox="0 0 1000 1000" version="1.1" xmlns="http://www.w3.org/2000/svg" p-id="2031" xmlns:xlink="http://www.w3.org/1999/xlink" width="32" height="32"><defs><style type="text/css"></style></defs><path d="M532.6967 499.0696H215.00004497135325c-11.039 0-19.9873 8.9479-19.9873 19.9864v258.1159973537941c0 11.0385 8.9483 19.9864 19.9873 19.9864h317.69562788503725c11.039 0 19.9873-8.9479 19.9873-19.9864V519.0560799777751C552.6839 508.0186 543.7356 499.0696 532.6967 499.0696zM512.7094 757.1856H234.98731308156704V539.042529165226h277.7210916646097V757.1856281441183zM929.9466 179.5683V82.24323908390113c0-11.0385-8.9483-19.9864-19.9873-19.9864H115.72028617770479c-11.038 0-19.9873 8.9479-19.9873 19.9864v97.32201567337346c-2.8762 14.689-19.8554 103.3999-19.8554 150.8677 0 30.0806 6.8466 55.8601 19.8004 74.5545 0.018 0.026 0.037 0.051 0.055 0.0769v471.3844013758671c0 11.0385 8.9493 19.9864 19.9873 19.9864h794.2380703491876c11.039 0 19.9873-8.9479 19.9873-19.9864V405.0653656820675c0.019-0.026 0.037-0.052 0.056-0.0779 12.9537-18.6943 19.8004-44.4738 19.8004-74.5545C949.802 282.9681 932.8238 194.2643 929.9466 179.5683zM135.7076 102.2297h754.26353412876v59.30279270654496H135.7075542879186V102.22968827135207zM631.8455 201.5054v176.9220468522342c-13.1346 13.6418-30.8354 21.3675-49.5095 21.3675-20.8387 0-40.4852-9.5975-53.9027-26.3301l-15.5941-19.4488-15.5941 19.4498c-13.4165 16.7327-33.0619 26.3301-53.9017 26.3301-18.6811 0-36.3818-7.7248-49.5085-21.3645V201.50537935279885H631.8455144073226zM131.5882 386.0423c-0.4087-0.5346-0.8415-1.0463-1.3002-1.536-11.3288-13.9006-14.4358-35.0772-14.4358-54.0733 0-35.2701 10.941-99.1508 16.4205-128.9276h221.58784854047974v176.92404549715295c-13.1266 13.6398-30.8274 21.3645-49.5095 21.3645-20.8467 0-40.4912-9.5955-53.8967-26.3252l-15.5981-19.4658-15.5971 19.4658c-13.4065 16.7307-33.0519 26.3262-53.8987 26.3262C149.9275 399.7939 139.0974 394.4246 131.5882 386.0423zM790.6913 856.4623H651.9626997602528V539.042529165226h138.7276304993719V856.4623185480244zM889.9721 856.4623h-59.30622193662637V519.0560799777751c0-11.0385-8.9483-19.9864-19.9873-19.9864H631.975431650039c-11.039 0-19.9873 8.9479-19.9873 19.9864v337.40623857024934H135.7075542879186V435.2109269914997c9.0752 3.012 18.9959 4.5569 29.6531 4.5569 25.6207 0 50.0221-9.0499 69.4967-25.3508 19.4736 16.3009 43.8741 25.3508 69.4947 25.3508s50.0221-9.0509 69.4967-25.3508c19.4746 16.3009 43.8751 25.3508 69.4957 25.3508 25.6147 0 50.0161-9.0519 69.4957-25.3558 19.4796 16.3029 43.881 25.3558 69.4957 25.3558s50.0171-9.0519 69.4967-25.3558c19.4786 16.3039 43.879 25.3558 69.4947 25.3558 25.6147 0 50.0161-9.0529 69.4967-25.3558 19.4796 16.3039 43.881 25.3558 69.4957 25.3558 10.6562 0 20.5769-1.544 29.6521-4.5559V856.4623185480244zM899.0633 379.3238c-3.4688 2.2615-6.1821 5.5692-7.7101 9.4786-7.3373 6.7754-17.3769 10.9925-31.0342 10.9925-20.8387 0-40.4852-9.5975-53.9027-26.3301l-15.5941-19.4478-15.5941 19.4478c-13.4185 16.7337-33.0649 26.3311-53.9037 26.3311-18.6741 0-36.3738-7.7258-49.5075-21.3675V201.50537935279885h221.58784854047974c5.4785 29.7768 16.4205 93.6575 16.4205 128.9276C909.8274 347.1956 907.414 365.6611 899.0633 379.3238zM108.7487 181.5189" p-id="2032" fill="#0fc966"></path></svg>