<?xml version="1.0" standalone="no"?><!DOCTYPE svg PUBLIC "-//W3C//DTD SVG 1.1//EN" "http://www.w3.org/Graphics/SVG/1.1/DTD/svg11.dtd"><svg t="1486621452504" class="icon" style="" viewBox="0 0 1024 1024" version="1.1" xmlns="http://www.w3.org/2000/svg" p-id="4392" xmlns:xlink="http://www.w3.org/1999/xlink" width="64" height="64"><defs><style type="text/css"></style></defs><path d="M511.354294 63.35698C265.369903 61.836347 63.291488 262.123976 61.46591 509.260609c-1.823532 246.808152 197.770296 450.095092 443.790502 452.002534 248.975515 1.929955 452.280874-197.09696 454.066543-444.51398C961.127044 266.800485 761.64578 64.904219 511.354294 63.35698zM509.948271 878.124631c-200.213951 0.558725-364.842429-163.836439-365.380688-364.862895-0.539282-201.591321 163.408697-366.398878 364.862895-366.773408 201.75812-0.375553 366.453113 163.470095 366.765221 364.872105C876.509854 713.798029 712.981431 877.55772 509.948271 878.124631z" p-id="4393" fill="#0fc966"></path><path d="M684.951027 416.08551c23.029506-23.290449 23.817452-57.545624 2.382257-79.524195-21.958104-22.515806-56.661488-22.357194-80.504522 0.979304-26.061562 25.507954-51.717895 51.432393-77.382415 77.342506-6.077416 6.135744-11.482519 12.93766-17.591657 19.882839-5.966898-5.711072-9.642614-9.105379-13.18223-12.637832-28.750811-28.699646-57.148581-57.764612-86.314855-86.034469-22.684652-21.98778-56.998155-21.48943-78.471213 0.035816-21.357424 21.409612-21.427008 55.781444 0.51984 78.502935 20.202111 20.915355 40.916898 41.342594 61.665455 61.720713 11.775184 11.564383 24.071232 22.598694 36.624129 34.332946-5.127787 5.508457-8.107655 8.90788-11.294231 12.100596-28.045753 28.099988-56.657394 55.664787-83.876316 84.541465-8.154727 8.651031-15.131629 20.268626-17.972327 31.689746-6.102998 24.529673 6.072299 47.817052 27.730575 59.319014 21.211091 11.265578 47.032176 7.855922 65.138556-9.838066 29.383214-28.712949 58.195424-58.010205 87.282902-87.026052 3.447519-3.439332 7.106862-6.664793 11.211343-10.496052 32.376385 32.482809 63.510476 63.9945 94.961792 95.186919 24.012903 23.815405 57.979506 24.804942 80.503499 2.831488 22.728654-22.174022 21.818935-57.036018-2.422166-81.495082-28.271904-28.525684-56.774051-56.822147-85.137029-85.257779-3.14155-3.149736-6.02011-6.559393-9.595542-10.477632C621.698424 479.342206 653.503804 447.89089 684.951027 416.08551z" p-id="4394" fill="#0fc966"></path></svg>