<?xml version="1.0" standalone="no"?><!DOCTYPE svg PUBLIC "-//W3C//DTD SVG 1.1//EN" "http://www.w3.org/Graphics/SVG/1.1/DTD/svg11.dtd"><svg t="1485627890070" class="icon" style="" viewBox="0 0 1024 1024" version="1.1" xmlns="http://www.w3.org/2000/svg" p-id="10537" xmlns:xlink="http://www.w3.org/1999/xlink" width="64" height="64"><defs><style type="text/css"></style></defs><path d="M664.86148 581.098751c73.007781-51.572586 120.688733-136.614447 120.688733-232.797044 0-157.316955-127.523395-284.839327-284.833187-284.839327-157.308769 0-284.83114 127.523395-284.83114 284.839327 0 99.532901 51.066049 187.126888 128.415718 238.054791-144.495952 63.027475-246.36506 205.535143-250.359025 372.294145l40.700981 0c4.297886-161.873738 110.796432-298.273291 257.32774-347.032808 33.510208 13.855566 70.231551 21.517059 108.74675 21.517059 41.827641 0 81.548294-9.017374 117.327172-25.212218 152.564721 45.228087 264.680195 184.55225 269.092691 350.726943l40.705074 0C923.731342 787.079032 816.014038 641.177058 664.86148 581.098751zM500.717026 592.434937c-134.832871 0-244.141416-109.304452-244.141416-244.13323 0-134.839011 109.308545-244.13937 244.141416-244.13937 134.834918 0 244.145509 109.300358 244.145509 244.13937C744.862535 483.131509 635.551944 592.434937 500.717026 592.434937z" p-id="10538" fill="#515151"></path></svg>