<?xml version="1.0" standalone="no"?><!DOCTYPE svg PUBLIC "-//W3C//DTD SVG 1.1//EN" "http://www.w3.org/Graphics/SVG/1.1/DTD/svg11.dtd"><svg t="1485623964712" class="icon" style="" viewBox="0 0 1024 1024" version="1.1" xmlns="http://www.w3.org/2000/svg" p-id="5990" xmlns:xlink="http://www.w3.org/1999/xlink" width="64" height="64"><defs><style type="text/css"></style></defs><path d="M921.66492 399.097436c-19.6128 0-34.134472 15.890243-34.134472 35.531402l0 434.697036c0 46.715951-36.218759 86.441558-82.96146 86.441558L169.373953 955.767433c-46.742701 0-101.105009-39.725608-101.105009-86.441558L68.268945 233.204662c0-46.784149 54.362308-96.637229 101.105009-96.637229l363.075979 0c19.646969 0 35.501218-14.492174 35.501218-34.133333s-15.854249-34.133333-35.501218-34.133333L169.373953 68.300766C76.025226 68.300766 0 139.636364 0 233.204662l0 636.087113c0 93.5001 76.025226 154.708225 169.373953 154.708225l635.195035 0c93.417064 0 151.230405-61.208125 151.230405-154.708225L955.799393 434.594739C955.799393 414.987679 941.27772 399.097436 921.66492 399.097436zM993.248223 81.769963l-51.970503-52.06953c-39.567286-39.62331-109.10047-39.62331-148.701925 0L694.306784 145.194539l-455.365478 433.060273 0 12.207526-0.410024 2.114153-65.87714 223.281785 48.382796 43.16963 211.298876-74.506827 2.665154 0.579687 10.387267 0L877.826554 329.02351l115.421669-94.216184C1034.250592 193.820047 1034.250592 122.825441 993.248223 81.769963zM265.695352 766.789477l30.751777-97.9671 61.503554 61.549118L265.695352 766.789477zM420.479295 693.748918l-90.478561-90.533467L729.84217 205.68658l87.540058 87.669131L420.479295 693.748918zM943.703694 180.998735l-69.772365 69.801132-101.583369-101.683916 69.738196-69.767033c6.594548-6.581152 15.375888-10.195671 24.840602-10.195671 9.362208 0 18.177717 3.614519 24.772265 10.195671l51.970503 52.035431C957.37115 145.058142 957.37115 167.324942 943.703694 180.998735z" p-id="5991" fill="#0fc966"></path></svg>