<?xml version="1.0" standalone="no"?><!DOCTYPE svg PUBLIC "-//W3C//DTD SVG 1.1//EN" "http://www.w3.org/Graphics/SVG/1.1/DTD/svg11.dtd"><svg t="1485623934963" class="icon" style="" viewBox="0 0 1026 1024" version="1.1" xmlns="http://www.w3.org/2000/svg" p-id="5273" xmlns:xlink="http://www.w3.org/1999/xlink" width="64.125" height="64"><defs><style type="text/css"></style></defs><path d="M1018.47824 645.074831l-20.665669 0c11.987009-5.539156 20.323884-17.555841 20.323884-31.630395l0.029676 0L1018.166131 102.144378c-0.029676-19.297508-15.672958-34.913161-34.968419-34.941813L476.716402 67.202565c-19.324114 0-34.968419 15.644305-34.968419 34.941813l0 68.620867c-3.081175-11.987009-13.898545-20.952194-26.830065-20.952194l-195.308221 0c-15.269775 0-35.509748 9.821693-44.985564 21.808702L61.58359 315.090305c-9.450233 12.045337-17.184381 34.368762-17.184381 49.641607l0 238.665705-9.876951 0c-17.754363 0-32.142048 14.387685-32.142048 32.142048l0 66.852594c0 17.754363 14.387685 32.142048 32.142048 32.142048l55.634088 0c11.104919 3.311419 23.778566 3.996011 33.085536 0.771573-1.201361 60.486606 42.360783 114.039289 103.787808 123.516128 66.970274 10.333346 129.59559-35.567054 139.928936-102.534258 1.572822-10.105149 1.713015-20.095687 0.800225-29.859052 21.636786 10.67513 58.888202 6.67912 57.803497-10.733459-0.113587-0.856507-0.313132-1.713015-0.426719-2.569522L613.792361 713.125717c-0.201591 17.927301 36.453237 29.17446 56.663534 22.180162-1.201361 60.486606 42.389436 114.039289 103.817484 123.516128 66.967204 10.333346 129.59559-35.567054 139.928936-102.534258 1.569752-10.105149 1.683339-20.095687 0.827855-29.859052 21.61018 10.67513 58.860573 6.67912 57.776891-10.733459-0.113587-0.856507-0.313132-1.713015-0.426719-2.569522l46.098921 0c3.826142 0 6.965645-3.109828 6.965645-6.907317l0-54.178947C1025.443885 648.214335 1022.304382 645.074831 1018.47824 645.074831zM460.131679 299.504328l276.434913 0 0 266.098497c-35.795251 11.733229-67.194378 34.225499-89.48915 64.400752l-170.360016 0c-9.160637 0-16.585747-7.424086-16.585747-16.559141L460.131679 299.504328zM983.197712 630.003578l-44.702108 0c-27.689642-37.453007-69.595055-64.400752-119.347179-71.649853-2.539846-0.400113-5.054109-0.456395-7.564279-0.74292L811.584146 299.504328l188.199313 0 0 313.940109C999.753783 622.579491 992.361419 630.003578 983.197712 630.003578zM999.782436 102.144378l0 122.229832L811.583123 224.37421 811.583123 85.588307l171.614589 0C992.331743 85.588307 999.753783 93.009324 999.782436 102.144378zM476.716402 85.588307l259.849166 0 0 138.785903L460.131679 224.37421 460.131679 102.144378C460.131679 93.009324 467.555765 85.588307 476.716402 85.588307zM366.246405 465.466174l-43.985794 0c-9.648754 0-17.470907-1.139963-17.470907-9.532097 0-8.365528 7.822153-20.808932 17.470907-20.808932l43.985794 0c9.620102 0 17.442254 12.443403 17.442254 20.808932C383.688659 464.326211 375.866507 465.466174 366.246405 465.466174zM82.763982 361.505427c0-11.475356 0.798179-14.787798 7.965415-23.749914l106.530268-132.363633c7.164167-8.93551 22.408359-16.272615 33.883715-16.272615l130.280182 0c11.475356 0 20.838607 9.391904 20.838607 20.86726L382.26217 380.458081c0 11.446703-9.362228 20.838607-20.838607 20.838607l-260.533758 0c-11.446703 0-18.125823-6.021134-18.125823-17.467837L82.763982 361.505427zM315.978535 748.407268c-5.995551 38.824237-42.305525 65.397453-81.097016 59.431577-38.794561-5.992481-65.341171-42.302455-59.375296-81.06734 5.965875-38.791491 42.275849-65.397453 81.07041-59.431577C295.368124 673.335479 321.974086 709.644429 315.978535 748.407268zM863.2212 748.407268c-5.965875 38.824237-42.275849 65.397453-81.097016 59.431577-38.764885-5.992481-65.370847-42.302455-59.375296-81.06734 5.995551-38.791491 42.305525-65.397453 81.07041-59.431577C842.61079 673.335479 869.187075 709.644429 863.2212 748.407268z" p-id="5274" fill="#0fc966"></path></svg>