<?xml version="1.0" standalone="no"?><!DOCTYPE svg PUBLIC "-//W3C//DTD SVG 1.1//EN" "http://www.w3.org/Graphics/SVG/1.1/DTD/svg11.dtd"><svg t="1485623806334" class="icon" style="" viewBox="0 0 1024 1024" version="1.1" xmlns="http://www.w3.org/2000/svg" p-id="3055" xmlns:xlink="http://www.w3.org/1999/xlink" width="64" height="64"><defs><style type="text/css"></style></defs><path d="M853.333333 512.297151 853.333333 199.111111C855.493063 146.768171 821.279175 113.263889 768 113.777778L710.77083 113.263889 710.77083 56.888889 768 56.888889C847.461575 56.888889 910.222222 120.310184 910.222222 200.608188L910.222222 547.647607C892.734436 533.845029 873.666133 521.956215 853.333333 512.297151L853.333333 512.297151ZM455.408185 910.222222 227.555556 910.222222C157.683797 911.979167 111.888896 865.255202 113.777778 796.444444L113.777778 199.111111C111.888896 146.768171 145.831936 113.777778 199.111111 113.777778L256 113.777778 257.111097 56.888889 199.111111 56.888889C119.649536 56.888889 56.888889 120.310184 56.888889 200.608188L56.888889 799.438598C56.888889 891.713206 131.501397 967.111111 222.814805 967.111111L490.758713 967.111111C476.956132 949.623327 465.067321 930.555039 455.40827 910.222239L455.408185 910.222222ZM455.111111 56.888889 341.333333 56.888889 341.333333 0 625.777778 0 625.777778 56.888889 512 56.888889 512 85.333333 455.111111 85.333333 455.111111 56.888889 455.111111 56.888889ZM369.777778 142.222222 597.333333 142.222222 597.333333 85.333333 369.777778 85.333333 369.777778 142.222222ZM725.333333 995.555556C843.154091 995.555556 938.666667 900.042968 938.666667 782.222222 938.666667 664.401476 843.154091 568.888889 725.333333 568.888889 607.512576 568.888889 512 664.401476 512 782.222222 512 900.042968 607.512576 995.555556 725.333333 995.555556ZM520.179285 654.222222C562.900708 585.894309 638.809344 540.444444 725.333333 540.444444 858.863502 540.444444 967.111111 648.692042 967.111111 782.222222 967.111111 915.752402 858.863502 1024 725.333333 1024 591.803164 1024 483.555556 915.752402 483.555556 782.222222 483.555556 757.473994 487.27387 733.594226 494.182343 711.111111L284.444444 711.111111 284.444444 654.222222 520.179285 654.222222 520.179285 654.222222ZM711.111111 824.888889 711.111111 853.333333 654.222222 853.333333 654.222222 881.777778 711.111111 881.777778 711.111111 938.666667 739.555556 938.666667 739.555556 881.777778 796.444444 881.777778 796.444444 853.333333 739.555556 853.333333 739.555556 824.888889 796.444444 824.888889 796.444444 796.444444 759.970588 796.444444 830.784825 682.666667 802.34038 682.666667 733.356516 796.444444 723.206087 796.444444 654.222222 682.666667 625.777778 682.666667 696.592014 796.444444 654.222222 796.444444 654.222222 824.888889 711.111111 824.888889 711.111111 824.888889ZM682.666667 540.444444 682.666667 483.555556 284.444444 483.555556 284.444444 540.444444 682.666667 540.444444ZM682.666667 369.777778 682.666667 312.888889 284.444444 312.888889 284.444444 369.777778 682.666667 369.777778Z" p-id="3056" fill="#0fc966"></path></svg>