<?xml version="1.0" standalone="no"?><!DOCTYPE svg PUBLIC "-//W3C//DTD SVG 1.1//EN" "http://www.w3.org/Graphics/SVG/1.1/DTD/svg11.dtd"><svg t="1485627808449" class="icon" style="" viewBox="0 0 1024 1024" version="1.1" xmlns="http://www.w3.org/2000/svg" p-id="8976" xmlns:xlink="http://www.w3.org/1999/xlink" width="64" height="64"><defs><style type="text/css"></style></defs><path d="M437.248 452.928 84.416 452.928C73.088 452.928 64 443.776 64 432.512L64 85.056C64 73.792 73.088 64.64 84.416 64.64l352.832 0c11.264 0 20.416 9.216 20.416 20.416l0 347.456C457.664 443.776 448.512 452.928 437.248 452.928zM104.896 412.032l311.936 0L416.832 105.6 104.896 105.6 104.896 412.032z" p-id="8977" fill="#515151"></path><path d="M437.248 927.04 84.416 927.04C73.088 927.04 64 917.888 64 906.624L64 559.36c0-11.392 9.088-20.48 20.416-20.48l352.832 0c11.264 0 20.416 9.152 20.416 20.48l0 347.264C457.664 917.888 448.512 927.04 437.248 927.04zM104.896 886.144l311.936 0L416.832 579.904 104.896 579.904 104.896 886.144z" p-id="8978" fill="#515151"></path><path d="M905.088 452.928 552.32 452.928c-11.392 0-20.48-9.216-20.48-20.416L531.84 85.056c0-11.264 9.152-20.416 20.48-20.416l352.768 0c11.328 0 20.416 9.216 20.416 20.416l0 347.456C925.504 443.776 916.352 452.928 905.088 452.928zM572.736 412.032l311.808 0L884.544 105.6 572.736 105.6 572.736 412.032z" p-id="8979" fill="#515151"></path><path d="M716.928 929.472c-112.512 0-204.032-91.584-204.032-203.904 0-112.64 91.52-204.032 204.032-204.032 112.384 0 203.904 91.456 203.904 204.032C920.832 837.952 829.312 929.472 716.928 929.472zM716.928 562.496c-89.984 0-163.072 73.28-163.072 163.136 0 89.6 73.088 162.88 163.072 162.88 89.728 0 162.944-73.28 162.944-162.88C879.872 635.776 806.656 562.496 716.928 562.496z" p-id="8980" fill="#515151"></path><path d="M939.456 959.36c-4.864 0-9.984-1.728-14.08-5.504l-90.752-85.952c-8.192-7.68-8.576-20.8-0.896-28.864 7.872-8.32 20.864-8.704 28.928-0.832l90.88 85.76c8.256 7.872 8.576 20.928 0.896 29.12C950.464 957.248 945.088 959.36 939.456 959.36z" p-id="8981" fill="#515151"></path></svg>